<svg width="16" height="16" viewBox="0 0 16 16" fill="none" xmlns="http://www.w3.org/2000/svg">
<path d="M8.00176 3.87684C5.7316 3.87684 3.90049 5.69852 3.90049 7.95698C3.90049 10.2154 5.7316 12.0371 8.00176 12.0371C10.2719 12.0371 12.103 10.2154 12.103 7.95698C12.103 5.69852 10.2719 3.87684 8.00176 3.87684ZM8.00176 10.6096C6.53472 10.6096 5.3354 9.42 5.3354 7.95698C5.3354 6.49395 6.53116 5.30436 8.00176 5.30436C9.47236 5.30436 10.6681 6.49395 10.6681 7.95698C10.6681 9.42 9.46879 10.6096 8.00176 10.6096V10.6096ZM13.2274 3.70994C13.2274 4.23905 12.7991 4.66162 12.2708 4.66162C11.7389 4.66162 11.3142 4.23549 11.3142 3.70994C11.3142 3.18439 11.7425 2.75826 12.2708 2.75826C12.7991 2.75826 13.2274 3.18439 13.2274 3.70994ZM15.9437 4.67582C15.883 3.401 15.5904 2.27177 14.6516 1.3414C13.7164 0.411032 12.5813 0.119847 11.2999 0.0559288C9.97922 -0.0186429 6.02073 -0.0186429 4.70004 0.0559288C3.42219 0.116296 2.28711 0.407481 1.34835 1.33785C0.409592 2.26822 0.120468 3.39745 0.0562184 4.67227C-0.0187395 5.98615 -0.0187395 9.92425 0.0562184 11.2381C0.116899 12.513 0.409592 13.6422 1.34835 14.5726C2.28711 15.5029 3.41862 15.7941 4.70004 15.858C6.02073 15.9326 9.97922 15.9326 11.2999 15.858C12.5813 15.7977 13.7164 15.5065 14.6516 14.5726C15.5868 13.6422 15.8795 12.513 15.9437 11.2381C16.0187 9.92425 16.0187 5.9897 15.9437 4.67582V4.67582ZM14.2375 12.6479C13.9591 13.3439 13.4201 13.8801 12.717 14.1606C11.664 14.5761 9.16539 14.4802 8.00176 14.4802C6.83813 14.4802 4.33596 14.5726 3.28655 14.1606C2.58694 13.8836 2.04796 13.3474 1.76597 12.6479C1.34835 11.6003 1.44472 9.11461 1.44472 7.95698C1.44472 6.79934 1.35192 4.31007 1.76597 3.26606C2.04439 2.57006 2.58337 2.03385 3.28655 1.75332C4.33953 1.33785 6.83813 1.43373 8.00176 1.43373C9.16539 1.43373 11.6676 1.3414 12.717 1.75332C13.4166 2.0303 13.9556 2.56651 14.2375 3.26606C14.6552 4.31362 14.5588 6.79934 14.5588 7.95698C14.5588 9.11461 14.6552 11.6039 14.2375 12.6479Z" fill="white"/>
</svg>
