<svg width="1440" height="100" viewBox="0 0 1440 100" fill="none" xmlns="http://www.w3.org/2000/svg">
<rect width="1440" height="100" fill="#F4F4F4"/>
<path fill-rule="evenodd" clip-rule="evenodd" d="M354.76 29.9509C354.76 29.8721 354.741 29.7428 354.853 29.737C355.255 29.7204 355.42 29.8771 355.42 30.1814C355.42 30.5562 355.181 30.6648 354.864 30.6482L354.76 29.9509V29.9509ZM314.967 36.328C311.651 36.328 310.049 38.9216 310.049 44.336C311.65 44.3957 313.253 44.5093 314.853 44.5093C316.454 44.5093 318.055 44.3957 319.658 44.336C319.659 40.9381 319.202 36.328 314.967 36.328ZM299.884 41.4555H297.826L297.256 38.114C297.026 36.9051 294.392 35.867 292.563 35.867C289.245 35.867 287.243 37.1356 287.243 39.6123C287.243 41.4555 288.215 42.3792 290.389 42.8402L295.08 43.8783C299.715 44.9139 302.345 46.6991 302.345 51.4278C302.345 58.1101 296.225 61.2211 290.331 61.2211C287.359 61.2211 284.382 60.7045 281.407 59.61L281.808 51.4851H284.038L284.325 55.4609C285.984 57.6507 288.386 58.455 291.073 58.455C293.649 58.455 295.995 56.8987 295.995 54.1359C295.995 51.5978 294.508 50.9063 292.392 50.3897L287.472 49.1808C283.469 48.1991 281.407 45.7216 281.407 42.0898C281.407 35.5229 286.499 33.1034 293.191 33.1034C295.766 33.1034 298.282 33.3911 300.343 34.4284L299.884 41.4555V41.4555ZM278.222 41.4555H276.164L275.594 38.114C275.362 36.9051 272.731 35.867 270.902 35.867C267.584 35.867 265.582 37.1356 265.582 39.6123C265.582 41.4555 266.553 42.3792 268.728 42.8402L273.417 43.8783C278.052 44.9139 280.684 46.6991 280.684 51.4278C280.684 58.1101 274.563 61.2211 268.67 61.2211C265.962 61.2211 263.255 60.7916 260.545 59.8886V60.4151C258.716 60.3571 257.172 60.2418 255.512 60.2418C253.911 60.2418 252.31 60.3571 250.307 60.4151L250.023 59.9533L250.307 56.3821L244.988 60.5312C244.13 61.2211 242.871 61.2211 241.841 61.2211C237.609 61.2211 235.492 58.285 235.492 54.1906C235.492 51.9444 236.178 49.408 238.123 48.083C240.24 46.6427 242.815 45.9512 245.273 45.4313L250.307 44.3957C250.307 40.3602 248.647 37.5958 244.359 37.5958C243.385 37.5958 241.383 37.8835 241.154 38.4034L239.898 41.2839L238.182 40.8801V36.9051L241.211 35.0585C243.672 33.5627 246.016 33.1025 247.848 33.1025C252.88 33.1025 257.456 35.3487 257.287 41.5144C257.231 43.8775 257.115 46.2381 257.115 48.6021C257.115 50.9635 257.231 53.383 257.287 55.7461C257.343 57.1872 257.685 57.9923 258.831 58.1092L259.815 58.2062L260.146 51.4842H262.376L262.662 55.4601C264.322 57.6499 266.725 58.4542 269.413 58.4542C271.988 58.4542 274.334 56.8978 274.334 54.1351C274.334 51.597 272.845 50.9055 270.729 50.3889L265.809 49.18C261.804 48.1983 259.745 45.7207 259.745 42.089C259.745 35.522 264.836 33.1025 271.53 33.1025C274.105 33.1025 276.62 33.3903 278.679 34.4275L278.222 41.4555V41.4555ZM250.307 53.6143V46.816L247.733 47.5067C244.701 48.3724 242.47 49.0067 242.47 52.752C242.47 55.1699 243.843 56.208 245.56 56.208C247.276 56.2088 249.621 54.7088 250.307 53.6143ZM203 23.1343V21.0017C206.775 21.059 209.694 21.175 211.924 21.175C215.871 21.175 219.13 21.059 223.534 21.0017C228.797 20.9445 234.404 22.2704 234.404 28.7793C234.404 34.6589 229.485 36.6182 224.223 38.4042C231.543 38.808 235.72 41.3991 235.72 48.083C235.72 55.1707 229.141 60.644 219.819 60.4143C217.245 60.3563 214.499 60.241 211.752 60.241C209.35 60.241 207.004 60.3563 204.887 60.4143V59.0893L206.719 58.0495C207.633 57.533 207.862 56.5546 207.862 54.7685V28.9526C207.862 26.5331 207.806 24.9767 207.461 24.2861C207.177 23.709 206.606 23.4221 205.119 23.3052L203 23.1343V23.1343ZM215.928 24.1128V37.1928H217.646C222.736 37.1928 225.937 35.6373 225.937 30.0479C225.937 25.5522 223.594 23.8823 219.419 23.8823C218.275 23.8823 217.129 23.9386 215.928 24.1128ZM354.76 30.7834C354.939 30.7834 355.037 30.7693 355.111 30.858C355.161 30.9202 355.233 31.0785 355.303 31.2469C355.376 31.4144 355.452 31.5827 355.506 31.6614L356.056 31.7502C355.963 31.6391 355.921 31.6175 355.879 31.5545C355.816 31.4658 355.746 31.3033 355.699 31.2079C355.612 31.0114 355.499 30.7527 355.271 30.7121C355.562 30.6582 355.811 30.4592 355.811 30.1292C355.808 30.0451 355.787 29.9627 355.747 29.8887C355.707 29.8146 355.651 29.751 355.583 29.703C355.415 29.5977 355.171 29.6093 354.98 29.6093H354.136C354.359 29.7254 354.374 29.7502 354.374 29.8879V31.4882L354.13 31.6399L355 31.751C354.775 31.6291 354.76 31.5827 354.76 31.4666V30.7834ZM355.025 29.0537C355.927 29.0537 356.653 29.7992 356.653 30.7369C356.653 31.6606 355.921 32.416 355.025 32.416C354.136 32.416 353.411 31.6606 353.411 30.7369C353.411 29.805 354.13 29.0537 355.025 29.0537ZM355.025 28.7395C353.964 28.7395 353.101 29.6375 353.101 30.7419C353.101 31.8389 353.964 32.7311 355.025 32.7311C356.093 32.7311 356.963 31.8389 356.963 30.7419C356.963 29.6317 356.093 28.7395 355.025 28.7395ZM215.928 40.1902V57.0156C217.073 57.2469 217.931 57.2469 219.018 57.2469C225.139 57.2469 227.141 53.6143 227.141 48.544C227.141 42.0906 223.482 40.1902 217.646 40.1902H215.928ZM329.499 53.9037V38.9788L326.224 39.1844C326.679 40.366 326.924 41.7225 326.924 43.244V46.2381C323.834 47.1029 320.401 47.3931 317.886 47.3931H310.394C310.394 52.9825 313.538 57.13 319.487 57.13C321.376 57.13 323.834 56.2088 325.665 55.1135L326.352 55.9783L325.095 58.7444C321.661 60.5876 319.316 61.2202 315.943 61.2202C307.591 61.2202 302.958 56.1516 302.958 47.9105C302.958 43.1835 303.587 38.9216 308.392 36.0403L311.082 34.4275C312.509 33.5635 314.056 33.1025 315.77 33.1025C320.321 33.1025 324.073 34.8438 325.838 38.3113V37.9432L329.613 35.4665V32.0089C329.613 30.222 329.5 28.4924 329.385 26.7064C331.903 25.7852 334.647 24.6302 336.364 23.825L337.167 24.3997C336.708 26.7056 336.48 29.5861 336.48 32.2385V35.5801L342.999 35.2335L342.927 35.8371L343.497 35.4665V32.0089C343.497 30.222 343.381 28.4924 343.269 26.7064C345.784 25.7852 348.532 24.6302 350.247 23.825L351.046 24.3997C350.591 26.7056 350.363 29.5861 350.363 32.2385V35.5801L356.884 35.2335L356.425 38.9788H350.363V52.6931C350.363 55.6342 351.334 56.4393 353.908 56.4393C355.111 56.4393 355.741 56.0944 356.54 55.6914L357 56.7859L354.196 60.1838C353.796 60.7053 352.535 61.2219 350.706 61.2219C345.501 61.2219 343.384 59.091 343.384 53.9054V38.9805L339.725 39.2101V38.9805H336.483V52.6948C336.483 55.6358 337.454 56.441 340.028 56.441C341.231 56.441 341.859 56.096 342.661 55.6931L343.118 56.7875L340.314 60.1855C339.913 60.707 338.657 61.2236 336.824 61.2236C331.613 61.2211 329.499 59.0893 329.499 53.9037V53.9037ZM204.714 67.8768H354.092V72.6818H204.714V67.8768ZM204.714 75.7704H354.092V78H204.714V75.7704Z" fill="#969696"/>
<path fill-rule="evenodd" clip-rule="evenodd" d="M808.663 54.5829C808.439 54.5829 808.219 54.6392 808.005 54.755C807.789 54.8707 807.627 55.0315 807.505 55.2486C807.388 55.4501 807.326 55.6787 807.325 55.9115C807.324 56.1443 807.384 56.3734 807.499 56.576C807.619 56.79 807.784 56.9539 807.996 57.0697C808.208 57.1874 808.431 57.2479 808.662 57.2479C808.894 57.2479 809.114 57.1874 809.328 57.0697C809.538 56.9539 809.706 56.79 809.824 56.576C809.941 56.364 810 56.1438 810 55.9143C810 55.6819 809.937 55.4606 809.82 55.2486C809.706 55.0384 809.533 54.8665 809.322 54.755C809.12 54.6426 808.894 54.5834 808.663 54.5829V54.5829Z" fill="#969696"/>
<path fill-rule="evenodd" clip-rule="evenodd" d="M808.663 54.8226C808.848 54.8226 809.027 54.8708 809.201 54.9629C809.377 55.0613 809.511 55.1934 809.609 55.3685C809.706 55.5437 809.757 55.727 809.757 55.9144C809.757 56.1019 809.707 56.2842 809.613 56.4562C809.518 56.6277 809.377 56.7684 809.205 56.8618C809.04 56.956 808.853 57.0056 808.663 57.0056C808.473 57.0056 808.286 56.956 808.121 56.8618C807.949 56.7698 807.808 56.6286 807.717 56.4562C807.619 56.2842 807.568 56.1019 807.568 55.9144C807.568 55.727 807.619 55.5447 807.717 55.3685C807.815 55.1924 807.952 55.0602 808.125 54.9629C808.3 54.8708 808.48 54.8226 808.663 54.8226V54.8226Z" fill="white"/>
<path fill-rule="evenodd" clip-rule="evenodd" d="M808.076 56.6549H808.319V56.0271H808.456C808.536 56.0271 808.598 56.0435 808.64 56.0814C808.7 56.1295 808.782 56.2412 808.884 56.4214L809.018 56.656H809.3L809.123 56.3661C809.063 56.2617 808.992 56.1639 808.911 56.0742C808.876 56.0407 808.835 56.0143 808.79 55.9964C808.901 55.9926 809.008 55.9469 809.088 55.8684C809.133 55.824 809.166 55.7687 809.184 55.7078C809.202 55.647 809.205 55.5825 809.191 55.5205C809.177 55.4586 809.147 55.4012 809.105 55.3538C809.063 55.3064 809.009 55.2706 808.949 55.2497C808.828 55.2172 808.703 55.2037 808.578 55.2098H808.076V56.6549V56.6549Z" fill="#969696"/>
<path fill-rule="evenodd" clip-rule="evenodd" d="M808.319 55.835V55.4003H808.586C808.665 55.3963 808.745 55.4042 808.822 55.4239C808.861 55.4397 808.895 55.4659 808.92 55.4998C808.946 55.5315 808.958 55.5715 808.958 55.6115C808.959 55.6421 808.953 55.6726 808.941 55.7005C808.928 55.7283 808.908 55.7526 808.884 55.7715C808.836 55.8114 808.742 55.834 808.606 55.834H808.319V55.835Z" fill="white"/>
<path fill-rule="evenodd" clip-rule="evenodd" d="M749.656 54.0965C749.87 54.2327 750.038 54.4283 750.038 54.7008V64.2382C750.038 64.5106 749.87 64.7062 749.656 64.8425H755.759V62.5779C755.529 62.8801 755.253 63.0603 754.701 63.0603H752.063V54.7008C752.063 54.4283 752.233 54.2327 752.447 54.0965H749.656V54.0965ZM788.78 64.8425C788.565 64.7062 788.397 64.5106 788.397 64.2382V54.7008C788.397 54.4283 788.565 54.2327 788.78 54.0965H785.997C786.213 54.2327 786.381 54.4283 786.381 54.7008V64.2382C786.381 64.5106 786.213 64.7062 785.997 64.8425H788.78ZM757.843 54.0965C758.057 54.2327 758.227 54.4283 758.227 54.7008V64.2382C758.227 64.5106 758.057 64.7062 757.843 64.8425H763.947V62.5779C763.716 62.8801 763.441 63.0603 762.889 63.0603H760.252V54.7008C760.252 54.4283 760.42 54.2327 760.634 54.0965H757.843ZM637.233 56.4491C637.962 56.4491 638.327 56.6888 638.631 57.0872V54.0965H630C630.284 54.2768 630.507 54.5369 630.507 54.8944V70.9457H633.181V62.9426H635.653C636.22 62.9426 636.564 63.0829 636.888 63.3809V60.1526C636.564 60.4507 636.22 60.591 635.653 60.591H633.181V56.4501H637.233V56.4491V56.4491ZM798.272 64.8425V62.5779C798.041 62.8801 797.766 63.0603 797.214 63.0603H794.147V60.3134H796.018C796.446 60.3134 796.708 60.4199 796.954 60.6453V58.2005C796.708 58.4268 796.446 58.5323 796.018 58.5323H794.147V55.8755H797.214C797.766 55.8755 798.042 56.0578 798.272 56.36V54.0955H791.738C791.953 54.2317 792.123 54.4273 792.123 54.6997V64.2372C792.123 64.5096 791.953 64.7052 791.738 64.8414H798.272V64.8425V64.8425ZM783.543 64.8404C783.312 64.6745 783.113 64.3887 782.991 63.4977C782.76 61.8374 781.719 60.1311 779.954 59.7388C781.196 59.4367 781.551 58.517 781.551 57.25C781.551 55.2876 780.033 53.8538 778.114 53.8538C777.378 53.8538 776.78 54.0955 776.412 54.0955C776.136 54.0955 775.906 54.0197 775.676 53.8538V64.2382C775.676 64.5086 775.508 64.7042 775.294 64.8404H778.085C777.871 64.7042 777.701 64.5086 777.701 64.2382V60.5254C779.771 60.9771 781.029 62.6373 781.029 64.1317C781.032 64.262 781.009 64.3917 780.962 64.5132C780.914 64.6347 780.843 64.7455 780.753 64.8394H783.543V64.8404Z" fill="#969696"/>
<path fill-rule="evenodd" clip-rule="evenodd" d="M777.704 55.8253C777.84 55.7493 777.995 55.7132 778.151 55.7209C779.068 55.7209 779.653 56.3989 779.653 57.2592C779.653 58.1349 779.069 58.7976 778.151 58.7976C777.995 58.8057 777.84 58.7695 777.704 58.6931V55.8253V55.8253Z" fill="#F4F4F4"/>
<path fill-rule="evenodd" clip-rule="evenodd" d="M677.295 64.8425C677.08 64.7062 676.911 64.5106 676.911 64.2382V54.7008C676.911 54.4283 677.08 54.2327 677.295 54.0965H674.512C674.727 54.2327 674.896 54.4283 674.896 54.7008V64.2382C674.896 64.5106 674.727 64.7062 674.512 64.8425H677.295ZM716.286 64.8425V62.5779C716.056 62.8801 715.781 63.0603 715.228 63.0603H712.162V60.3134H714.032C714.461 60.3134 714.723 60.4199 714.968 60.6453V58.2005C714.723 58.4268 714.462 58.5323 714.032 58.5323H712.162V55.8755H715.228C715.781 55.8755 716.057 56.0578 716.286 56.36V54.0955H709.754C709.968 54.2317 710.138 54.4273 710.138 54.6997V64.2372C710.138 64.5096 709.969 64.7052 709.754 64.8414H716.286V64.8425V64.8425ZM772.973 64.8425V62.5779C772.741 62.8801 772.467 63.0603 771.915 63.0603H768.847V60.3134H770.719C771.147 60.3134 771.409 60.4199 771.653 60.6453V58.2005C771.409 58.4268 771.147 58.5323 770.719 58.5323H768.847V55.8755H771.915C772.467 55.8755 772.742 56.0578 772.973 56.36V54.0955H766.44C766.654 54.2317 766.822 54.4273 766.822 54.6997V64.2372C766.822 64.5096 766.654 64.7052 766.44 64.8414H772.973V64.8425V64.8425ZM707.609 64.8404C707.379 64.6745 707.18 64.3887 707.057 63.4977C706.827 61.8374 705.784 60.1311 704.021 59.7388C705.263 59.4367 705.615 58.517 705.615 57.25C705.615 55.2876 704.097 53.8538 702.18 53.8538C701.444 53.8538 700.846 54.0955 700.478 54.0955C700.202 54.0955 699.972 54.0197 699.742 53.8538V64.2382C699.742 64.5086 699.573 64.7042 699.358 64.8404H702.149C701.935 64.7042 701.765 64.5086 701.765 64.2382V60.5254C703.835 60.9771 705.093 62.6373 705.093 64.1317C705.096 64.262 705.073 64.3916 705.026 64.5131C704.979 64.6345 704.908 64.7454 704.817 64.8394H707.609V64.8404V64.8404Z" fill="#969696"/>
<path fill-rule="evenodd" clip-rule="evenodd" d="M701.771 55.8253C701.906 55.7491 702.06 55.7129 702.215 55.7208C703.135 55.7208 703.718 56.3988 703.718 57.2591C703.718 58.1348 703.135 58.7975 702.215 58.7975C702.06 58.8058 701.906 58.7696 701.771 58.693V55.8253V55.8253Z" fill="#F4F4F4"/>
<path fill-rule="evenodd" clip-rule="evenodd" d="M660.776 64.8404C660.546 64.6745 660.347 64.3887 660.224 63.4977C659.994 61.8374 658.951 60.1311 657.188 59.7388C658.43 59.4367 658.783 58.517 658.783 57.25C658.783 55.2876 657.265 53.8538 655.348 53.8538C654.613 53.8538 654.015 54.0955 653.646 54.0955C653.369 54.0955 653.14 54.0197 652.909 53.8538V64.2382C652.909 64.5086 652.74 64.7042 652.526 64.8404H655.317C655.102 64.7042 654.933 64.5086 654.933 64.2382V60.5254C657.003 60.9771 658.261 62.6373 658.261 64.1317C658.264 64.262 658.241 64.3917 658.193 64.5132C658.146 64.6347 658.075 64.7455 657.984 64.8394H660.776V64.8404V64.8404Z" fill="#969696"/>
<path fill-rule="evenodd" clip-rule="evenodd" d="M654.937 55.8252C655.073 55.7491 655.227 55.7129 655.383 55.7208C656.302 55.7208 656.885 56.3988 656.885 57.2591C656.885 58.1348 656.303 58.7975 655.383 58.7975C655.227 58.8059 655.073 58.7696 654.937 58.693V55.8252V55.8252Z" fill="#F4F4F4"/>
<path fill-rule="evenodd" clip-rule="evenodd" d="M729.564 62.3045C729.188 62.3045 728.944 62.2184 728.68 61.8927V65.0678C728.944 64.7421 729.188 64.656 729.564 64.656H732.679V67.8024C732.679 68.3329 730.752 68.6064 730.156 68.6064C726.842 68.6064 724.449 65.7601 724.449 62.5636C724.449 59.409 726.863 56.8209 730.156 56.8209C731.416 56.8209 732.628 57.3207 733.579 57.8656V54.4713C733.532 54.578 733.455 54.6683 733.356 54.7304C733.258 54.7925 733.143 54.8235 733.027 54.8196C732.827 54.8196 732.257 54.712 731.77 54.626C731.275 54.5324 730.772 54.481 730.268 54.4724C725.602 54.4724 722.016 58.0847 722.016 62.5656C722.016 67.0465 725.602 70.959 730.268 70.959C732.765 70.959 735.065 69.8723 735.065 69.3111V62.3075H729.564V62.3045V62.3045ZM675.845 47.5016V44.1945C675.307 44.599 675.101 44.6482 674.049 44.6482H669.764V32.5267C669.764 31.4912 669.841 31.1881 670.302 30.6831H666.12C666.583 31.1881 666.685 31.4912 666.685 32.5267V45.6581C666.685 46.7191 666.583 46.9967 666.12 47.5016H675.845V47.5016ZM690.43 43.9394L691.431 46.3135C691.508 46.4897 691.559 46.6915 691.559 46.8441C691.559 47.0715 691.508 47.223 691.276 47.5006H695.87C695.176 46.8441 694.74 46.2132 694.33 45.3037L687.453 30L680.576 45.3037C680.166 46.2132 679.729 46.8441 679.037 47.5006H683.63C683.399 47.223 683.322 47.0715 683.322 46.8441C683.322 46.6925 683.373 46.4907 683.45 46.3135L684.502 43.9394H690.43V43.9394Z" fill="#969696"/>
<path fill-rule="evenodd" clip-rule="evenodd" d="M687.453 36.8181L689.3 41.2376H685.605L687.453 36.8181Z" fill="#F4F4F4"/>
<path fill-rule="evenodd" clip-rule="evenodd" d="M700.614 41.0421V37.0938C700.162 37.611 699.9 37.7083 699.139 37.7083H695.19V41.6238C695.642 41.1383 695.904 41.0421 696.665 41.0421H700.614V41.0421ZM718.744 41.0421V37.0938C718.292 37.611 718.03 37.7083 717.269 37.7083H713.319V41.6238C713.771 41.1383 714.033 41.0421 714.794 41.0421H718.744V41.0421Z" fill="#969696"/>
<path fill-rule="evenodd" clip-rule="evenodd" d="M702.31 30.6831V33.9657C702.798 33.6625 703.388 33.5365 704.312 33.5365H708.52L708.264 33.9913L707.828 34.7492C707.623 35.1026 707.417 35.4815 707.006 36.2138L700.848 47.5016H713.371V44.1176C712.806 44.5468 712.319 44.6481 711.087 44.6481H705.903C706.407 43.8552 706.886 43.0467 707.34 42.2239L713.652 30.6831H702.31ZM721.866 30.3287V45.657C721.866 46.7437 721.789 46.9956 721.327 47.5006H724.844C727.742 47.5006 728.949 47.2476 730.181 46.3391C731.669 45.278 732.492 43.6362 732.492 41.7425C732.492 40.0505 731.797 38.6115 730.592 37.7778C731.131 36.9953 731.336 36.3644 731.336 35.4293C731.336 32.4744 729.053 30.3287 725.845 30.3287C725.293 30.3427 724.742 30.4103 724.203 30.5305L723.432 30.7077C723.229 30.7579 723.023 30.7835 722.816 30.7835C722.431 30.7825 722.277 30.7077 721.866 30.3287V30.3287Z" fill="#969696"/>
<path fill-rule="evenodd" clip-rule="evenodd" d="M724.943 44.6226V33.4352C725.431 33.3082 725.637 33.2581 725.946 33.2581C727.28 33.2581 728.358 34.3191 728.358 35.6322C728.358 36.768 727.741 37.5515 726.303 38.2838C728.408 39.0919 729.332 40.1018 729.332 41.6422C729.332 42.5773 728.922 43.4346 728.23 43.9405C727.535 44.4465 727.023 44.5725 725.381 44.597C725.277 44.6226 725.149 44.6226 724.943 44.6226Z" fill="#F4F4F4"/>
<path fill-rule="evenodd" clip-rule="evenodd" d="M744.119 47.9738C749.097 47.9738 753.152 44.0593 753.152 39.2107C753.152 34.3621 749.123 30.422 744.144 30.422C739.191 30.422 735.162 34.3621 735.162 39.2107C735.162 44.0593 739.191 47.9738 744.119 47.9738V47.9738Z" fill="#969696"/>
<path fill-rule="evenodd" clip-rule="evenodd" d="M744.145 44.9442C740.936 44.9442 738.319 42.3683 738.319 39.2117C738.319 36.0551 740.936 33.4792 744.145 33.4792C747.377 33.4792 749.97 36.0551 749.996 39.2117C749.996 42.3929 747.377 44.9442 744.145 44.9442Z" fill="#F4F4F4"/>
<path fill-rule="evenodd" clip-rule="evenodd" d="M759.692 36.7188L756.997 32.199C756.794 31.8702 756.639 31.4667 756.639 31.2639C756.639 30.9863 756.715 30.8604 756.997 30.6842H751.916C752.481 31.0632 752.867 31.4923 753.533 32.578L758.152 39.8263V45.6591C758.152 46.7202 758.076 46.9977 757.614 47.5027H761.797C761.308 46.9977 761.233 46.7202 761.233 45.6591V39.8263L765.852 32.578C766.52 31.4923 766.904 31.0632 767.468 30.6842H762.387C762.669 30.8604 762.747 30.9874 762.747 31.2393C762.747 31.4667 762.594 31.8456 762.387 32.2L759.692 36.7188V36.7188ZM747.729 64.8425C747.468 64.5896 747.26 64.287 747.117 63.9525L742.732 54.0965L738.35 63.9525C738.207 64.2872 737.999 64.5898 737.737 64.8425H740.544C740.419 64.707 740.351 64.5289 740.353 64.3447C740.367 64.0723 740.595 63.5284 740.767 63.1362L741.203 62.0659H744.261L744.698 63.1362C744.87 63.5284 745.098 64.0723 745.112 64.3447C745.114 64.529 745.046 64.7072 744.921 64.8425H747.729V64.8425Z" fill="#969696"/>
<path fill-rule="evenodd" clip-rule="evenodd" d="M741.937 60.2643L742.732 58.3019L743.531 60.2643H741.937Z" fill="white"/>
<path fill-rule="evenodd" clip-rule="evenodd" d="M801.304 64.9726V62.5903C801.304 62.5903 801.386 62.9067 802.242 63.1904C803.369 63.5663 805.208 63.3041 805.208 61.9163C805.208 60.7139 803.705 59.8136 803.069 59.364C802.431 58.9144 801.304 57.9014 801.304 56.5874C801.304 54.6752 802.992 54.0371 804.157 54.0371C804.906 54.0371 805.507 54.4488 805.507 54.4488V56.5495C805.507 56.5495 805.242 55.7609 804.306 55.7609C803.48 55.7609 803.219 56.063 803.219 56.6632C803.219 56.9633 803.405 57.3371 805.131 58.5754C806.857 59.8136 807.007 61.014 807.007 61.8405C807.007 62.8903 806.331 64.9736 803.292 64.9736H801.304V64.9726V64.9726ZM807.12 68.7437V66.7936H737.932V68.7437H807.12ZM716.019 68.7437V66.7936H641.876V68.7437H716.019V68.7437ZM679.798 54.1232V56.5218C679.933 56.3078 680.13 56.1378 680.401 56.1378H681.8V64.2392C681.8 64.5117 681.632 64.7073 681.417 64.8435H684.2C683.986 64.7073 683.817 64.5117 683.817 64.2392V56.1378H685.217C685.488 56.1378 685.685 56.3078 685.82 56.5218V54.1232H679.798V54.1232ZM669.099 54.0965C669.314 54.2327 669.483 54.4284 669.483 54.7008V60.8378L663.536 54.0986V64.2403C663.536 64.5106 663.367 64.7063 663.153 64.8425H665.936C665.721 64.7063 665.552 64.5106 665.552 64.2403V58.8273L671.499 65.4427V54.7008C671.499 54.4284 671.668 54.2327 671.883 54.0965H669.099V54.0965ZM641.635 60.8655C641.635 60.8337 641.635 60.8962 641.635 60.8655V60.8655ZM649.465 60.8655C649.466 60.8962 649.465 60.8337 649.465 60.8655V60.8655Z" fill="#969696"/>
<path fill-rule="evenodd" clip-rule="evenodd" d="M649.87 54.0966H647.087C647.302 54.2328 647.509 54.4284 647.509 54.7008V60.8666C647.509 61.9225 646.608 62.8525 645.55 62.8525C644.493 62.8525 643.633 61.9225 643.633 60.8666V54.7008C643.633 54.4284 643.798 54.2328 644.012 54.0966H641.229C641.444 54.2328 641.634 54.4284 641.634 54.7008V60.8666C641.634 63.0174 643.398 64.8333 645.549 64.8333C647.7 64.8333 649.464 63.0174 649.464 60.8666V54.7008C649.465 54.4284 649.655 54.2328 649.87 54.0966V54.0966ZM696.893 54.0966H694.111C694.325 54.2328 694.533 54.4284 694.533 54.7008V60.8666C694.533 61.9225 693.632 62.8525 692.575 62.8525C691.517 62.8525 690.659 61.9225 690.659 60.8666V54.7008C690.659 54.4284 690.824 54.2328 691.038 54.0966H688.255C688.469 54.2328 688.66 54.4284 688.66 54.7008V60.8666C688.66 63.0174 690.424 64.8333 692.575 64.8333C694.726 64.8333 696.489 63.0174 696.489 60.8666V54.7008C696.488 54.4284 696.679 54.2328 696.893 54.0966V54.0966Z" fill="#969696"/>
<path fill-rule="evenodd" clip-rule="evenodd" d="M982.276 46.2676C980.66 46.5844 977.009 46.6937 977.009 48.7024C977.009 50.7489 978.031 51.1757 978.116 51.4743C978.202 51.773 979.737 53.735 979.098 54.7998C978.458 55.8668 978.159 55.7386 977.776 55.7386C977.392 55.7386 976.411 55.44 976.241 56.0372C976.071 56.6345 975.473 56.7204 974.92 56.7204C974.365 56.7204 970.484 56.5922 968.438 58.5113C968.438 58.5113 965.025 56.4218 964.513 55.5252C964.002 54.6301 963.704 53.9047 962.85 53.8625C961.998 53.8195 962.338 52.4124 962.466 52.0286C962.595 51.6448 962.595 51.2609 962.084 50.9623C961.572 50.6637 960.932 50.6637 960.761 50.7067C960.591 50.7489 960.804 50.2799 960.42 49.8109C960.038 49.3418 960.038 48.1052 960.676 47.7636C961.316 47.4227 965.24 44.8641 965.624 44.4796C966.008 44.0958 966.774 43.6697 965.496 43.1577C965.496 43.1577 954.756 40.1789 949.64 34.9671C949.64 34.9671 947.657 32.3451 946.891 31.8659C946.891 31.8659 947.05 31.5462 947.562 31.5462C947.562 31.5462 946.443 30.5877 946.219 29.788C946.219 29.788 947.242 29.2126 948.328 29.3729C948.328 29.3729 944.468 25.9986 943.609 24.9877C943.609 24.9877 946.164 25.8223 947.403 25.5186L944.773 21.4976C944.773 21.4976 948.465 22.6607 950.312 23.7736C950.312 23.7736 947.327 18.7402 946.063 17.4256C946.063 17.4256 945.784 16.7424 946.77 17.4758C946.77 17.4758 953.599 22.231 956.255 22.5092C956.255 22.5092 953.245 17.3498 952.74 16.1102C952.234 14.8707 953.423 15.9078 953.574 16.3637C953.726 16.8189 958.481 22.5092 960.96 23.4458C960.96 23.4458 960.58 20.9419 960.657 20.2587C960.732 19.5756 961.263 20.0818 961.263 20.486C961.263 20.8902 962.679 23.5966 963.868 24.6592C965.056 25.7211 966.423 28.5543 967.586 29.2374C967.586 29.2374 972.872 34.8272 977.172 35.3829C977.172 35.3829 978.133 35.5854 977.627 36.2431C977.122 36.9007 977.5 37.2802 977.754 37.5839C978.007 37.8876 979.044 39.3035 980.182 39.7084C981.32 40.1133 980.586 40.1381 980.561 40.2393C980.536 40.3406 981.826 40.7703 981.826 40.2648C981.826 39.7594 982.306 39.5817 982.963 39.4054C983.62 39.2277 985.441 38.5453 986.706 38.8745C986.706 38.8745 986.479 36.1936 984.127 35.8651C981.775 35.5359 980.409 35.7893 980.409 35.7893C980.409 35.7893 979.22 35.1572 980.561 34.9292C981.902 34.702 989.818 31.6409 991.537 30.4268C991.537 30.4268 997.785 26.102 999.049 23.7503C999.049 23.7503 999.479 23.5478 999.176 24.003C998.873 24.4582 997.557 27.3919 997.557 27.7465C997.557 28.1012 997.608 28.5055 998.19 28.0248C998.77 27.5441 1001.1 25.7743 1001.6 25.4706C1002.11 25.1669 1001.81 25.7488 1001.68 26.1027C1001.55 26.4567 1001.07 28.0503 1001.12 28.7334L1002.03 28.7079C1002.03 28.7079 1001.91 30.276 1001.2 30.7057C1001.2 30.7057 1001.58 30.9584 1001.96 30.8324C1001.96 30.8324 1001.83 33.4624 998.848 36.0428C998.848 36.0428 997.482 37.6363 998.595 37.4339C999.707 37.2314 1000.39 37.4339 998.923 38.0406C997.456 38.6472 995.276 39.2518 989.91 43.0106C989.907 43.0084 984.834 46.028 982.276 46.2676V46.2676Z" fill="#969696"/>
<path fill-rule="evenodd" clip-rule="evenodd" d="M876 75.1359C877.552 74.9582 878.439 74.8402 878.439 73.0267V58.641C878.439 56.6797 877.275 56.6199 876 56.5304V55.7875H884.564C886.116 55.7875 891.771 55.9055 891.771 60.5426C891.771 63.8412 888.638 64.6154 887.475 65.0007V65.0604C889.803 65.477 892.713 66.962 892.713 70.3509C892.713 72.8475 890.773 75.7608 884.926 75.8802H876V75.1359V75.1359Z" fill="#969696"/>
<path fill-rule="evenodd" clip-rule="evenodd" d="M882.874 73.1162C882.874 74.4534 883.373 74.9282 884.537 74.9282C887.585 74.9282 887.946 72.2837 887.946 70.4702C887.946 66.2198 885.507 65.7748 883.705 65.6852H882.873V73.1162H882.874V73.1162ZM882.874 64.793C886.588 64.793 887.198 63.5439 887.198 60.5127C887.198 58.4319 886.588 56.6788 884.343 56.6788C882.93 56.6788 882.901 57.4516 882.874 58.1355V64.793V64.793Z" fill="#F4F4F4"/>
<path fill-rule="evenodd" clip-rule="evenodd" d="M900.708 75.8801H894.083V75.1664C895.192 75.1664 895.496 74.0965 895.496 73.3842V58.225C895.496 57.898 895.441 56.5011 894.083 56.5011V55.7881H899.349V73.3842C899.349 74.2465 899.626 75.1664 900.708 75.1664V75.8801V75.8801ZM914.057 74.6012C913.28 75.583 912.255 76.2953 911.008 76.2953C909.068 76.2953 908.846 75.0477 908.68 74.2159C906.878 76.1474 904.938 76.2953 904.273 76.2953C902.942 76.2953 901.224 75.3747 901.224 73.1162C901.224 70.0252 904.744 68.8359 908.68 67.5569V65.3873C908.68 63.8709 908.291 62.7712 906.241 62.7712C905.243 62.7712 904.605 63.3655 904.605 63.8411C904.605 64.4652 905.437 64.7034 905.437 65.8621C905.437 66.3967 905.022 67.5264 903.58 67.5264C903.247 67.5264 901.751 67.5263 901.751 65.5067C901.751 63.6335 903.497 61.8207 906.934 61.8207C910.011 61.8207 912.477 63.0982 912.477 65.892V73.65C912.477 73.8277 912.477 74.3929 913.087 74.3929C913.14 74.3954 913.192 74.386 913.24 74.3653C913.288 74.3446 913.33 74.3132 913.364 74.2735L913.642 73.9778L914.057 74.6012V74.6012Z" fill="#969696"/>
<path fill-rule="evenodd" clip-rule="evenodd" d="M908.652 68.5985C908.015 68.7464 905.271 69.6087 905.271 72.1949C905.271 73.117 905.686 74.1861 906.684 74.1861C907.627 74.1861 908.264 73.3835 908.652 72.9072V68.5985Z" fill="#F4F4F4"/>
<path fill-rule="evenodd" clip-rule="evenodd" d="M925.498 73.1746C924.224 75.1075 922.394 76.2954 920.204 76.2954C916.657 76.2954 914.273 73.1447 914.273 69.4886C914.273 63.6336 918.209 61.8216 920.814 61.8216C922.782 61.8216 925.11 62.9213 925.11 65.0604C925.11 66.962 923.447 66.962 923.225 66.962C921.673 66.962 921.673 65.5068 921.673 63.9009C921.673 63.0087 920.953 62.7414 920.536 62.7414C918.375 62.7414 918.181 66.3976 918.181 67.7355C918.181 71.8964 919.872 74.3034 922.034 74.3034C923.614 74.3034 924.335 73.4411 925 72.6392L925.498 73.1746V73.1746ZM939.696 62.8616C938.588 63.0692 938.061 63.1886 937.285 63.8718C936.675 64.4064 935.178 65.8331 934.457 66.7552L939.835 74.7215C940.111 75.1366 940.306 75.1665 940.528 75.1665V75.8802H934.042V75.1665C934.431 75.1665 935.206 75.0784 935.206 74.6021C935.206 74.275 934.846 73.7113 934.541 73.2649L931.908 69.2817L931.271 69.9955V73.3836C931.271 74.6909 931.382 74.9582 932.712 75.1658V75.8795H926.088V75.1658C927.197 75.1658 927.419 74.0959 927.419 73.3836V58.2244C927.419 57.8974 927.419 56.5005 926.088 56.5005V55.7875H931.271V68.5985L934.819 64.7931C935.069 64.5258 935.401 63.9606 935.401 63.7232C935.401 63.1289 935.096 63.0692 933.766 62.8609V62.177H939.698V62.8616H939.696V62.8616ZM955.688 75.8802H949.175V75.1665C950.089 75.0784 950.476 74.5722 950.476 73.4724V66.2803C950.476 65.4479 950.449 63.8135 948.952 63.8135C947.843 63.8135 946.652 65.2687 946.652 65.536V73.4717C946.652 74.1556 946.735 75.0179 948.009 75.1658V75.8795H941.331V75.1658C942.328 74.9582 942.799 74.8402 942.799 73.3836V58.2244C942.799 56.8275 942.411 56.7394 941.331 56.5005V55.7875H946.652V64.1391C947.982 62.4749 949.175 61.8216 950.615 61.8216C952.14 61.8216 954.33 62.7422 954.33 66.0123V73.3836C954.33 73.8883 954.33 75.1658 955.688 75.1658V75.8802V75.8802ZM969.011 74.6013C968.236 75.5831 967.21 76.2954 965.962 76.2954C964.022 76.2954 963.8 75.0478 963.634 74.216C961.833 76.1475 959.892 76.2954 959.227 76.2954C957.897 76.2954 956.178 75.3748 956.178 73.1163C956.178 70.0253 959.699 68.836 963.633 67.5571V65.3874C963.633 63.8711 963.246 62.7713 961.195 62.7713C960.196 62.7713 959.559 63.3656 959.559 63.8412C959.559 64.4654 960.391 64.7035 960.391 65.8623C960.391 66.3968 959.975 67.5265 958.533 67.5265C958.201 67.5265 956.704 67.5265 956.704 65.5068C956.704 63.6336 958.45 61.8208 961.887 61.8208C964.964 61.8208 967.431 63.0983 967.431 65.8921V73.6501C967.431 73.8279 967.431 74.393 968.039 74.393C968.092 74.3957 968.144 74.3863 968.192 74.3656C968.24 74.3449 968.283 74.3134 968.317 74.2736L968.594 73.9779L969.011 74.6013V74.6013Z" fill="#969696"/>
<path fill-rule="evenodd" clip-rule="evenodd" d="M963.607 68.5985C962.969 68.7464 960.225 69.6087 960.225 72.1949C960.225 73.117 960.64 74.1861 961.637 74.1861C962.58 74.1861 963.218 73.3835 963.606 72.9072V68.5985H963.607Z" fill="#F4F4F4"/>
<path fill-rule="evenodd" clip-rule="evenodd" d="M988.536 62.8915C988.008 63.0095 987.622 63.0692 987.15 64.378L982.854 76.2954H982.217L979.445 67.2898H979.306L975.925 76.2954H975.261L971.158 65.1798C970.437 63.2469 970.299 63.0393 969.578 62.8907V62.177H975.731V62.8907C975.343 62.9505 974.677 63.0087 974.677 63.7829C974.677 64.4056 975.62 66.6649 977.006 70.648L978.891 65.5651C978.613 64.5549 978.447 63.9606 978.309 63.6038C978.06 62.9811 977.754 62.981 977.089 62.8907V62.177H983.574V62.8907C982.853 62.9505 982.244 63.0087 982.244 63.6336C982.244 64.2585 983.408 68.1215 983.907 70.4405H983.963C984.71 68.1812 986.123 64.6452 986.123 63.9912C986.123 63.0393 985.57 62.981 984.794 62.8915V62.1777H988.536V62.8915V62.8915ZM1003.17 62.8616C1002.06 63.0692 1001.53 63.1886 1000.76 63.8718C1000.15 64.4064 998.651 65.8331 997.93 66.7552L1003.31 74.7215C1003.58 75.1366 1003.78 75.1665 1004 75.1665V75.8802H997.515V75.1665C997.903 75.1665 998.679 75.0784 998.679 74.6021C998.679 74.275 998.319 73.7113 998.013 73.2649L995.38 69.2817L994.743 69.9955V73.3836C994.743 74.6909 994.854 74.9582 996.185 75.1658V75.8795H989.56V75.1658C990.668 75.1658 990.89 74.0959 990.89 73.3836V58.2244C990.89 57.8974 990.89 56.5005 989.56 56.5005V55.7875H994.742V68.5985L998.29 64.7931C998.54 64.5258 998.873 63.9606 998.873 63.7232C998.873 63.1289 998.567 63.0692 997.238 62.8609V62.177H1003.17V62.8616H1003.17V62.8616ZM943.473 84.9667H942.8V79.9938H946.244V80.5881H943.473V82.1132H945.911V82.7089H943.473V84.9667V84.9667ZM953.933 79.9938V83.2217C953.933 84.2399 953.295 85.0993 951.931 85.0993C950.594 85.0993 950.019 84.2399 950.019 83.3113V79.9938H950.691V83.1248C950.691 84.2056 951.349 84.5035 951.951 84.5035C952.568 84.5035 953.261 84.2187 953.261 83.1394V79.9945H953.933V79.9938V79.9938ZM958.592 84.9667H957.921V79.9938H960.221C961.039 79.9938 961.855 80.2771 961.855 81.331C961.855 82.0651 961.481 82.3353 961.163 82.5218C961.447 82.6397 961.731 82.765 961.758 83.4576L961.8 84.3578C961.807 84.6353 961.841 84.7387 962.05 84.856V84.9667H961.225C961.128 84.6623 961.107 83.907 961.107 83.7206C961.107 83.3113 961.025 82.8327 960.221 82.8327H958.592V84.9667V84.9667Z" fill="#969696"/>
<path fill-rule="evenodd" clip-rule="evenodd" d="M958.592 82.258H960.152C960.644 82.258 961.163 82.1328 961.163 81.3986C961.163 80.6303 960.602 80.5676 960.27 80.5676H958.592V82.258Z" fill="#F4F4F4"/>
<path fill-rule="evenodd" clip-rule="evenodd" d="M968.877 79.9937H969.529V84.9666H968.774L966.246 80.9492H966.232V84.9666H965.58V79.9937H966.377L968.865 84.011H968.877V79.9937V79.9937ZM974.098 84.9666H973.426V79.9937H974.098V84.9666ZM977.168 79.9937H981.206V80.588H979.524V84.9666H978.851V80.588H977.168V79.9937V79.9937ZM988.407 79.9937V83.2216C988.407 84.2397 987.77 85.0991 986.404 85.0991C985.068 85.0991 984.492 84.2397 984.492 83.3111V79.9937H985.165V83.1247C985.165 84.2055 985.822 84.5034 986.425 84.5034C987.043 84.5034 987.735 84.2186 987.735 83.1392V79.9944H988.407V79.9937V79.9937ZM993.067 84.9666H992.395V79.9937H994.695C995.512 79.9937 996.33 80.277 996.33 81.3308C996.33 82.065 995.955 82.3352 995.637 82.5216C995.922 82.6396 996.204 82.7649 996.233 83.4575L996.274 84.3577C996.281 84.6352 996.316 84.7386 996.523 84.8559V84.9666H995.7C995.603 84.6622 995.582 83.9069 995.582 83.7204C995.582 83.3111 995.499 82.8326 994.695 82.8326H993.067V84.9666V84.9666Z" fill="#969696"/>
<path fill-rule="evenodd" clip-rule="evenodd" d="M993.066 82.258H994.626C995.118 82.258 995.637 82.1328 995.637 81.3986C995.637 80.6303 995.077 80.5676 994.744 80.5676H993.066V82.258Z" fill="#F4F4F4"/>
<path fill-rule="evenodd" clip-rule="evenodd" d="M1003.99 84.9666H1000.32V79.9937H1003.94V80.588H1000.99V82.1131H1003.71V82.7088H1000.99V84.3723H1003.99V84.9666Z" fill="#969696"/>
<path fill-rule="evenodd" clip-rule="evenodd" d="M1073.91 40.3113H1082.09L1079.45 54.0664H1087.39L1086.13 60.6397H1070L1073.91 40.3113V40.3113ZM1090.97 44.8515H1102.8L1101.98 49.1293H1096.39L1096.09 50.6787H1101.16L1100.39 54.73H1095.31L1095 56.3725H1100.73L1099.91 60.6397H1087.93L1090.97 44.8515V44.8515ZM1105.25 44.8515H1112.14L1112.91 50.5729C1112.98 50.9888 1113.05 51.4947 1113.11 52.0947C1113.16 52.7192 1113.14 53.4589 1113.06 54.313H1113.18C1113.73 52.8599 1114.26 51.6545 1114.79 50.6977L1117.9 44.8526H1124.65L1114.89 60.6397H1108.97L1105.25 44.8515V44.8515ZM1127.04 44.8515H1133.48L1130.45 60.6397H1124.01L1127.04 44.8515ZM1139.39 50.0172H1135.86L1136.85 44.8515H1150.27L1149.28 50.0172H1145.73L1143.69 60.6397H1137.35L1139.39 50.0172ZM1158.42 49.56H1152.25L1153.15 44.8515H1169.44L1159.66 55.7777H1166.47L1165.54 60.6397H1148.39L1158.42 49.56ZM1084.8 41.7464L1083.87 39.1058H1085.37L1085.53 39.6974C1085.59 39.908 1085.63 40.1208 1085.66 40.3356C1085.7 40.2097 1085.74 40.0996 1085.79 40.0022C1085.83 39.9102 1085.88 39.8202 1085.92 39.7324L1086.26 39.1069H1087.91L1086.19 41.7718L1085.9 43.6228H1084.5L1084.8 41.7464V41.7464ZM1090.5 43.7445C1089.96 43.7445 1089.51 43.5678 1089.17 43.2143C1088.79 42.8132 1088.6 42.2829 1088.59 41.6268C1088.59 40.9463 1088.76 40.3674 1089.11 39.8816C1089.54 39.3016 1090.1 39.0074 1090.8 39C1091.39 39.0053 1091.85 39.2 1092.2 39.5863C1092.54 39.9758 1092.71 40.487 1092.72 41.1167C1092.72 41.7961 1092.54 42.3771 1092.2 42.8608C1091.77 43.446 1091.21 43.7403 1090.5 43.7445V43.7445ZM1090.71 40.4954C1090.61 40.4949 1090.51 40.5194 1090.41 40.5669C1090.32 40.6144 1090.24 40.6835 1090.17 40.7685C1090.03 40.9452 1089.96 41.1749 1089.96 41.4553C1089.96 41.6903 1090.02 41.8808 1090.13 42.0258C1090.24 42.175 1090.4 42.248 1090.59 42.248C1090.7 42.2471 1090.81 42.2198 1090.9 42.1685C1091 42.1172 1091.08 42.0435 1091.14 41.9538C1091.28 41.7519 1091.35 41.5098 1091.35 41.2627C1091.34 41.032 1091.29 40.8468 1091.17 40.705C1091.11 40.6394 1091.04 40.5868 1090.97 40.5506C1090.89 40.5145 1090.8 40.4957 1090.71 40.4954V40.4954ZM1096.08 39.1058L1095.74 41.3008C1095.69 41.6014 1095.66 41.8088 1095.66 41.922C1095.66 42.1665 1095.76 42.2904 1095.95 42.2904C1096.09 42.2904 1096.19 42.2142 1096.25 42.0607C1096.3 41.9072 1096.35 41.6818 1096.39 41.3834L1096.74 39.1048H1098.13L1097.74 41.6215C1097.66 42.1919 1097.53 42.6322 1097.35 42.9444C1097.01 43.4704 1096.53 43.735 1095.92 43.7434C1094.84 43.7223 1094.29 43.1741 1094.27 42.0924C1094.27 41.8416 1094.31 41.4892 1094.39 41.0362L1094.69 39.1048H1096.08V39.1058V39.1058ZM1099.35 39.181H1100.02V40.9156H1099.35V39.181ZM1101.9 39.1058H1103.3L1102.8 42.2332H1103.98L1103.77 43.6217H1101.19L1101.9 39.1058ZM1105.87 39.1058H1107.28L1106.77 42.2332H1107.96L1107.74 43.6217H1105.17L1105.87 39.1058ZM1112.69 39.1058H1114.1L1113.59 42.2332H1114.78L1114.56 43.6217H1111.99L1112.69 39.1058V39.1058ZM1117.98 43.7445C1117.44 43.7445 1116.99 43.5678 1116.65 43.2143C1116.27 42.8132 1116.08 42.2829 1116.07 41.6268C1116.07 40.9463 1116.24 40.3674 1116.59 39.8816C1117.02 39.3016 1117.58 39.0074 1118.28 39C1118.87 39.0053 1119.33 39.2 1119.67 39.5863C1120.02 39.9758 1120.19 40.487 1120.19 41.1167C1120.19 41.7961 1120.02 42.3771 1119.67 42.8608C1119.25 43.446 1118.69 43.7403 1117.98 43.7445V43.7445ZM1118.19 40.4954C1118.09 40.4949 1117.98 40.5194 1117.89 40.5669C1117.8 40.6144 1117.71 40.6835 1117.65 40.7685C1117.51 40.9452 1117.43 41.1749 1117.43 41.4553C1117.43 41.6903 1117.49 41.8808 1117.61 42.0258C1117.72 42.175 1117.87 42.248 1118.07 42.248C1118.18 42.2471 1118.28 42.2198 1118.38 42.1685C1118.47 42.1172 1118.55 42.0435 1118.61 41.9538C1118.75 41.7519 1118.83 41.5098 1118.83 41.2627C1118.82 41.032 1118.76 40.8468 1118.65 40.705C1118.59 40.6394 1118.52 40.5868 1118.44 40.5507C1118.36 40.5145 1118.28 40.4957 1118.19 40.4954V40.4954ZM1121.62 39.1058H1123L1123.13 40.5219C1123.17 40.8563 1123.19 41.2056 1123.19 41.5675C1123.27 41.2447 1123.37 40.9166 1123.5 40.5822L1124.06 39.1048H1125.57L1123.5 43.6207H1122.26L1121.62 39.1058V39.1058ZM1126.84 39.1058H1129.45L1129.26 40.3303H1128.02L1127.95 40.7674H1129.12L1128.94 41.9115H1127.78L1127.7 42.3972H1129.05L1128.87 43.6217H1126.15L1126.84 39.1058V39.1058ZM1134.08 39.1058H1135.48L1134.77 43.6217H1133.37L1134.08 39.1058V39.1058ZM1137.52 40.4785H1136.7L1136.92 39.1058H1139.91L1139.7 40.4785H1138.91L1138.42 43.6217H1137.01L1137.52 40.4785V40.4785ZM1145.14 39.1058H1146.65L1147.14 43.6217H1145.79L1145.77 43.0217H1144.85L1144.65 43.6217H1143.16L1145.14 39.1058V39.1058ZM1145.71 41.9517L1145.7 41.467C1145.68 41.2665 1145.68 41.0656 1145.68 40.8648L1145.68 40.5505C1145.63 40.7696 1145.57 40.9867 1145.5 41.2013L1145.23 41.9506H1145.71V41.9517V41.9517ZM1149.31 40.4785H1148.49L1148.71 39.1058H1151.7L1151.49 40.4785H1150.7L1150.21 43.6217H1148.8L1149.31 40.4785ZM1180.22 47.1386C1181.58 47.1386 1182.51 47.1195 1183.01 47.0782C1183.01 47.7894 1183.02 48.7451 1183.05 49.9484C1183.01 50.0278 1182.93 50.0733 1182.8 50.086C1182.67 50.1104 1182.54 50.0899 1182.43 50.0278C1182.28 48.888 1181.86 48.2435 1181.17 48.0921C1180.63 47.9756 1180.08 47.9188 1179.52 47.9228H1178.52C1178.13 47.9112 1177.89 47.9598 1177.82 48.072C1177.72 48.198 1177.68 48.5345 1177.69 49.0838V52.6853C1177.69 52.9287 1177.72 53.0758 1177.77 53.1213C1177.83 53.1869 1177.96 53.2208 1178.16 53.2208H1179.32C1180.16 53.2356 1180.72 53.188 1181.01 53.0822C1181.3 52.989 1181.47 52.7435 1181.52 52.3381L1181.68 51.6545C1181.72 51.614 1181.77 51.5826 1181.82 51.5624C1181.88 51.5421 1181.94 51.5335 1181.99 51.537C1182.12 51.5497 1182.21 51.5973 1182.26 51.6735C1182.22 52.3398 1182.2 53.0073 1182.2 53.6748C1182.2 54.4167 1182.22 55.1078 1182.26 55.746C1182.21 55.8243 1182.12 55.8635 1181.99 55.8635C1181.88 55.8707 1181.77 55.8353 1181.68 55.764L1181.52 54.9829C1181.47 54.5903 1181.3 54.3363 1181.01 54.2241C1180.72 54.131 1180.16 54.0918 1179.32 54.1045H1178.16C1177.96 54.1045 1177.83 54.1257 1177.77 54.1648C1177.72 54.2368 1177.69 54.3987 1177.69 54.6485V57.4435C1177.69 58.4564 1177.76 59.0871 1177.91 59.3284C1178.05 59.5803 1178.35 59.7041 1178.79 59.7041L1179.62 59.8036C1179.7 59.8714 1179.74 59.973 1179.74 60.1095C1179.71 60.2502 1179.66 60.3413 1179.58 60.3804C1178.56 60.3505 1177.55 60.3339 1176.53 60.3307C1175.65 60.3307 1174.75 60.3476 1173.84 60.3804C1173.76 60.3413 1173.72 60.2481 1173.72 60.1053C1173.72 59.9687 1173.75 59.8671 1173.8 59.7994L1174.23 59.7369C1174.69 59.7105 1174.99 59.5718 1175.13 59.3231C1175.26 59.0797 1175.33 58.4511 1175.33 57.4361V50.0035C1175.33 48.9822 1175.26 48.3472 1175.13 48.0974C1174.99 47.8402 1174.69 47.7058 1174.23 47.6921L1173.98 47.6529C1173.92 47.5576 1173.89 47.45 1173.9 47.3407C1173.9 47.2063 1173.93 47.1185 1174.01 47.0782C1174.84 47.1141 1175.66 47.131 1176.49 47.129L1180.22 47.1386V47.1386ZM1193.28 57.1684C1193.28 57.7843 1193.31 58.3093 1193.36 58.7336C1193.42 59.2025 1193.57 59.4449 1193.81 59.4597C1194.12 59.4597 1194.43 59.4099 1194.73 59.3104C1194.82 59.3665 1194.87 59.4692 1194.87 59.6163C1194.88 59.6985 1194.86 59.7799 1194.82 59.8523C1194.78 59.9246 1194.72 59.9852 1194.65 60.028C1194.17 60.0714 1193.59 60.1603 1192.93 60.2947C1192.62 60.347 1192.31 60.4173 1192.01 60.5053C1191.74 60.5993 1191.47 60.7085 1191.22 60.8323C1191.11 60.8037 1191.05 60.7328 1191.02 60.6196C1191.07 60.3423 1191.1 60.0777 1191.08 59.8301C1191.07 59.6671 1191 59.5867 1190.88 59.5867C1190.43 59.8639 1189.99 60.1052 1189.53 60.3106C1189.04 60.5027 1188.52 60.6076 1188 60.6207C1187.07 60.6037 1186.42 60.3518 1186.06 59.8534C1185.67 59.3485 1185.47 58.6522 1185.49 57.7579V54.4072C1185.49 53.6759 1185.45 53.1975 1185.38 52.971C1185.31 52.7647 1185.14 52.6345 1184.87 52.5784L1184.58 52.5022C1184.51 52.4113 1184.48 52.2981 1184.49 52.1836C1184.49 52.0513 1184.53 51.973 1184.63 51.9455C1185.99 51.8873 1186.96 51.7592 1187.54 51.5613C1187.65 51.5825 1187.72 51.646 1187.75 51.7518C1187.71 51.973 1187.69 52.5826 1187.69 53.5817V56.889C1187.67 57.5356 1187.78 58.0987 1188 58.5823C1188.13 58.8225 1188.31 59.0056 1188.54 59.1337C1188.77 59.2829 1189.07 59.357 1189.43 59.357C1189.97 59.357 1190.43 59.175 1190.84 58.813C1190.94 58.696 1191.01 58.5561 1191.04 58.4056C1191.08 58.1417 1191.09 57.8757 1191.08 57.6097V54.35C1191.08 53.6907 1191.04 53.2526 1190.94 53.0398C1190.81 52.8472 1190.55 52.7107 1190.15 52.626L1189.81 52.5181C1189.74 52.4461 1189.7 52.3403 1189.7 52.1974C1189.7 52.0863 1189.74 51.9953 1189.83 51.9328C1190.51 51.9088 1191.19 51.8668 1191.87 51.8069C1192.49 51.737 1192.91 51.6534 1193.13 51.555C1193.24 51.5772 1193.31 51.6397 1193.34 51.7476C1193.3 52.1656 1193.28 52.7731 1193.28 53.5732V57.1684V57.1684ZM1196.54 54.5998C1196.54 54.1352 1196.52 53.7912 1196.47 53.5722C1196.43 53.3721 1196.27 53.2039 1196.01 53.062L1195.74 52.9033C1195.71 52.8226 1195.7 52.736 1195.7 52.6493C1195.7 52.5654 1195.73 52.483 1195.78 52.4154C1196.8 52.0704 1197.68 51.6841 1198.43 51.2576C1198.56 51.2576 1198.66 51.3222 1198.71 51.4481C1198.69 51.8799 1198.67 52.2027 1198.67 52.4133C1198.67 52.5826 1198.74 52.6673 1198.89 52.6673C1199.23 52.4133 1199.57 52.1625 1199.92 51.9148C1200.26 51.6979 1200.6 51.5783 1200.96 51.5571C1201.72 51.6068 1202.11 51.9561 1202.12 52.6048C1202.11 53.006 1201.99 53.3139 1201.76 53.5245C1201.54 53.7368 1201.24 53.8547 1200.94 53.8537C1200.73 53.8548 1200.53 53.7943 1200.37 53.6801C1200.11 53.5065 1199.9 53.3912 1199.74 53.3372C1199.55 53.3129 1199.42 53.2959 1199.36 53.2959C1198.91 53.2959 1198.71 53.8124 1198.74 54.8485V57.7801C1198.72 58.559 1198.77 59.066 1198.89 59.2999C1198.99 59.556 1199.21 59.6904 1199.56 59.7031L1200.39 59.7877C1200.47 59.8576 1200.52 59.9634 1200.52 60.1063C1200.49 60.2513 1200.43 60.3465 1200.35 60.3899C1199.43 60.3591 1198.51 60.3411 1197.59 60.336C1196.91 60.336 1196.18 60.355 1195.4 60.3899C1195.3 60.3465 1195.26 60.2513 1195.26 60.1063C1195.26 59.9634 1195.29 59.8587 1195.35 59.7877L1195.73 59.7253C1196.09 59.6756 1196.32 59.5327 1196.41 59.2977C1196.5 59.0639 1196.54 58.5559 1196.54 57.7727V54.5998H1196.54V54.5998ZM1205.67 57.7727C1205.66 58.5537 1205.71 59.0607 1205.83 59.2956C1205.92 59.5517 1206.14 59.701 1206.48 59.7444L1206.8 59.7856C1206.88 59.8555 1206.93 59.9613 1206.93 60.1042C1206.9 60.2492 1206.84 60.3444 1206.76 60.3878C1206.01 60.3518 1205.27 60.3338 1204.52 60.3338C1203.87 60.3338 1203.11 60.3529 1202.24 60.3878C1202.15 60.3444 1202.11 60.2492 1202.11 60.1042C1202.11 59.9613 1202.14 59.8565 1202.2 59.7856L1202.66 59.7232C1203.02 59.6735 1203.25 59.5306 1203.35 59.2956C1203.43 59.0617 1203.47 58.5558 1203.47 57.7737V54.6114C1203.47 54.1426 1203.45 53.7986 1203.41 53.5775C1203.37 53.3785 1203.21 53.207 1202.94 53.0673L1202.68 52.9086C1202.65 52.8274 1202.63 52.74 1202.64 52.6525C1202.64 52.5593 1202.66 52.481 1202.7 52.4186C1203.65 52.118 1204.57 51.7289 1205.44 51.2565C1205.58 51.2714 1205.67 51.3264 1205.71 51.4259C1205.69 51.8767 1205.67 52.2069 1205.67 52.4196C1205.67 52.5456 1205.74 52.6186 1205.87 52.6324C1206.34 52.335 1206.79 52.082 1207.21 51.8757C1207.61 51.683 1208.12 51.5762 1208.75 51.555C1209.61 51.5762 1210.25 51.8418 1210.68 52.353C1211.07 52.8864 1211.26 53.5806 1211.26 54.4411V57.7727C1211.25 58.5537 1211.3 59.0607 1211.41 59.2946C1211.51 59.5306 1211.73 59.6724 1212.07 59.7221L1212.55 59.7846C1212.64 59.8544 1212.68 59.9603 1212.68 60.1031C1212.65 60.2481 1212.6 60.3434 1212.51 60.3868C1211.72 60.3524 1210.92 60.3344 1210.13 60.3328C1209.44 60.3328 1208.73 60.3518 1207.98 60.3868C1207.9 60.3434 1207.85 60.2481 1207.85 60.1031C1207.85 59.9603 1207.88 59.8555 1207.94 59.7846L1208.26 59.7433C1208.61 59.6999 1208.84 59.5507 1208.94 59.2946C1209.02 59.0586 1209.06 58.5506 1209.06 57.7695V54.803C1209.06 54.2262 1208.94 53.7574 1208.7 53.3954C1208.43 53.0335 1207.99 52.844 1207.37 52.8292C1206.68 52.8578 1206.21 53.0832 1205.97 53.5034C1205.86 53.6727 1205.78 53.8463 1205.73 54.0241C1205.69 54.1955 1205.67 54.4834 1205.67 54.8877V57.7727H1205.67V57.7727ZM1216.71 57.7727C1216.7 58.5537 1216.75 59.0649 1216.87 59.2977C1216.96 59.5338 1217.18 59.6756 1217.51 59.7232L1217.9 59.7877C1217.98 59.8576 1218.02 59.9634 1218.02 60.1042C1218 60.2513 1217.94 60.3465 1217.86 60.3899C1216.36 60.3183 1214.86 60.3183 1213.37 60.3899C1213.28 60.3465 1213.23 60.2513 1213.23 60.1042C1213.23 59.9634 1213.26 59.8587 1213.33 59.7877L1213.7 59.7232C1214.06 59.6756 1214.29 59.5327 1214.39 59.2977C1214.47 59.0617 1214.51 58.5537 1214.51 57.7727V54.6019C1214.51 54.1331 1214.49 53.787 1214.45 53.5658C1214.41 53.3669 1214.25 53.1975 1213.98 53.0557L1213.72 52.8948C1213.69 52.8138 1213.67 52.7263 1213.68 52.6387C1213.68 52.5477 1213.7 52.4694 1213.74 52.4048C1214.91 52.0291 1215.82 51.6396 1216.48 51.2407C1216.54 51.2459 1216.6 51.2639 1216.65 51.2931C1216.7 51.3224 1216.74 51.3623 1216.77 51.41C1216.73 52.2885 1216.71 53.1679 1216.71 54.0474V57.7727ZM1215.59 48.689C1215.18 48.689 1214.85 48.5514 1214.61 48.2731C1214.37 48.0297 1214.24 47.7132 1214.24 47.3185C1214.24 46.9206 1214.37 46.5925 1214.61 46.3364C1214.85 46.0855 1215.18 45.9606 1215.59 45.9606C1216 45.9606 1216.33 46.0866 1216.58 46.3364C1216.82 46.5925 1216.94 46.9206 1216.94 47.3185C1216.94 47.7132 1216.82 48.0286 1216.58 48.2731C1216.33 48.5514 1216 48.689 1215.59 48.689ZM1222.29 52.8028C1222.1 52.8028 1222 52.8313 1221.97 52.8874C1221.91 52.9954 1221.88 53.2123 1221.88 53.5362V56.8625C1221.87 57.5504 1221.96 58.142 1222.16 58.6405C1222.36 59.1506 1222.78 59.4131 1223.44 59.4279C1223.81 59.4279 1224.15 59.2956 1224.45 59.0332C1224.66 59.0617 1224.75 59.2088 1224.72 59.4692C1224.51 59.7645 1224.18 60.0269 1223.73 60.2566C1223.27 60.4884 1222.71 60.6101 1222.04 60.627C1221.57 60.627 1221.17 60.5445 1220.85 60.3815C1220.56 60.2826 1220.31 60.0927 1220.13 59.8396C1219.95 59.5827 1219.84 59.2888 1219.79 58.9802C1219.72 58.6402 1219.68 58.2936 1219.69 57.9463V53.5785C1219.69 53.2102 1219.67 52.9816 1219.64 52.8885C1219.59 52.8324 1219.48 52.8038 1219.3 52.8038H1218.56C1218.44 52.7319 1218.39 52.6366 1218.39 52.517C1218.38 52.4638 1218.38 52.4091 1218.4 52.3583C1218.42 52.3076 1218.45 52.2627 1218.49 52.2281C1219.19 51.9487 1219.74 51.6449 1220.16 51.3211C1220.37 51.156 1220.58 50.9634 1220.8 50.7422C1220.99 50.521 1221.16 50.267 1221.32 49.9728C1221.43 49.9082 1221.54 49.8881 1221.66 49.9082C1221.77 49.9368 1221.85 49.9929 1221.9 50.0797V51.3804C1221.89 51.5433 1221.91 51.6513 1221.97 51.701C1222.01 51.7592 1222.12 51.7857 1222.31 51.7857H1224.41C1224.52 51.8577 1224.57 52.0132 1224.57 52.2471C1224.56 52.5054 1224.46 52.6916 1224.29 52.8049H1222.29V52.8028V52.8028ZM1233.74 57.1684C1233.74 57.7843 1233.77 58.3093 1233.83 58.7336C1233.89 59.2025 1234.04 59.4449 1234.27 59.4597C1234.59 59.4597 1234.89 59.4099 1235.19 59.3104C1235.29 59.3665 1235.34 59.4692 1235.34 59.6163C1235.34 59.6984 1235.32 59.7797 1235.28 59.8521C1235.24 59.9244 1235.18 59.9851 1235.11 60.028C1234.63 60.0714 1234.06 60.1603 1233.39 60.2947C1233.08 60.347 1232.77 60.4173 1232.47 60.5053C1232.2 60.5997 1231.93 60.7089 1231.68 60.8323C1231.58 60.8037 1231.51 60.7328 1231.48 60.6196C1231.54 60.3423 1231.56 60.0777 1231.55 59.8301C1231.53 59.6671 1231.46 59.5867 1231.34 59.5867C1230.9 59.8639 1230.45 60.1052 1229.99 60.3106C1229.5 60.5029 1228.99 60.6078 1228.46 60.6207C1227.53 60.6037 1226.88 60.3518 1226.52 59.8534C1226.13 59.3485 1225.94 58.6522 1225.95 57.7579V54.4072C1225.95 53.6759 1225.92 53.1975 1225.84 52.971C1225.77 52.7647 1225.61 52.6345 1225.34 52.5784L1225.05 52.5022C1224.98 52.4281 1224.95 52.3202 1224.95 52.1836C1224.95 52.0513 1225 51.973 1225.09 51.9455C1226.46 51.8873 1227.43 51.7592 1228 51.5613C1228.12 51.5825 1228.19 51.646 1228.22 51.7518C1228.17 51.973 1228.15 52.5826 1228.15 53.5817V56.889C1228.14 57.5356 1228.24 58.0987 1228.46 58.5823C1228.6 58.8225 1228.78 59.0056 1229 59.1337C1229.24 59.2829 1229.54 59.357 1229.9 59.357C1230.43 59.357 1230.9 59.175 1231.3 58.813C1231.4 58.697 1231.47 58.5568 1231.5 58.4056C1231.53 58.2447 1231.55 57.978 1231.55 57.6097V54.35C1231.55 53.6907 1231.5 53.2526 1231.4 53.0398C1231.28 52.8472 1231.01 52.7107 1230.61 52.626L1230.27 52.5181C1230.2 52.4461 1230.16 52.3403 1230.16 52.1974C1230.16 52.0863 1230.21 51.9953 1230.29 51.9328C1230.97 51.9087 1231.66 51.8667 1232.34 51.8069C1232.95 51.737 1233.37 51.6534 1233.6 51.555C1233.71 51.5772 1233.78 51.6397 1233.8 51.7476C1233.77 52.1656 1233.74 52.7731 1233.74 53.5732V57.1684V57.1684ZM1237 54.5998C1237 54.1352 1236.98 53.7912 1236.94 53.5722C1236.9 53.3721 1236.74 53.2039 1236.47 53.062L1236.21 52.9033C1236.18 52.8228 1236.16 52.7361 1236.17 52.6493C1236.17 52.5583 1236.19 52.48 1236.24 52.4154C1237.26 52.0704 1238.14 51.6841 1238.89 51.2576C1238.95 51.2551 1239.01 51.2721 1239.07 51.3063C1239.12 51.3405 1239.16 51.3901 1239.18 51.4481C1239.15 51.8799 1239.13 52.2027 1239.13 52.4133C1239.13 52.5826 1239.21 52.6673 1239.35 52.6673C1239.69 52.4133 1240.03 52.1625 1240.39 51.9148C1240.72 51.6979 1241.07 51.5783 1241.42 51.5571C1242.18 51.6068 1242.57 51.9561 1242.59 52.6048C1242.57 53.006 1242.45 53.3139 1242.23 53.5245C1242 53.7365 1241.71 53.8543 1241.4 53.8537C1241.2 53.8545 1241 53.794 1240.83 53.6801C1240.58 53.5065 1240.37 53.3912 1240.2 53.3372C1240.02 53.3129 1239.89 53.2959 1239.82 53.2959C1239.38 53.2959 1239.17 53.8124 1239.2 54.8485V57.7801C1239.18 58.559 1239.24 59.066 1239.35 59.2999C1239.45 59.556 1239.67 59.6904 1240.03 59.7031L1240.85 59.7877C1240.94 59.8576 1240.98 59.9634 1240.98 60.1063C1240.95 60.2513 1240.9 60.3465 1240.81 60.3899C1239.89 60.3591 1238.97 60.3411 1238.05 60.336C1237.37 60.336 1236.64 60.355 1235.86 60.3899C1235.77 60.3465 1235.72 60.2513 1235.72 60.1063C1235.72 59.9634 1235.75 59.8587 1235.82 59.7877L1236.19 59.7253C1236.55 59.6756 1236.78 59.5327 1236.88 59.2977C1236.96 59.0639 1237 58.5559 1237 57.7727V54.5998H1237ZM1244.76 55.2295C1244.58 55.2295 1244.46 55.2359 1244.4 55.2507C1244.35 55.2941 1244.32 55.3787 1244.32 55.5068C1244.32 56.4974 1244.62 57.3134 1245.23 57.9579C1245.8 58.6299 1246.56 58.9728 1247.5 58.9876C1248.36 59.0162 1249.04 58.6585 1249.54 57.9145C1249.59 57.9003 1249.64 57.8988 1249.7 57.91C1249.75 57.9212 1249.8 57.9448 1249.85 57.9791C1249.89 58.0084 1249.93 58.0493 1249.96 58.0978C1249.99 58.1463 1250 58.2008 1250 58.2563C1249.84 58.652 1249.62 59.0186 1249.34 59.3411C1249.07 59.6256 1248.77 59.8695 1248.43 60.065C1247.77 60.4333 1247.11 60.6185 1246.43 60.6185C1245.2 60.6016 1244.22 60.1931 1243.5 59.3845C1242.75 58.5929 1242.37 57.5716 1242.35 56.3249C1242.35 55.0496 1242.75 53.9479 1243.54 53.0197C1244.3 52.0767 1245.39 51.5867 1246.81 51.5518C1247.63 51.5518 1248.35 51.7973 1248.99 52.2852C1249.63 52.7879 1249.96 53.5108 1249.98 54.4516C1249.98 54.6294 1249.94 54.7967 1249.88 54.9543C1249.74 55.1364 1249.26 55.2295 1248.41 55.2295H1244.76V55.2295ZM1246.7 54.3744C1247.27 54.3744 1247.62 54.3246 1247.74 54.2252C1247.88 54.1257 1247.94 53.9733 1247.94 53.7658C1247.94 53.369 1247.83 53.0324 1247.6 52.7551C1247.37 52.5128 1247.02 52.3847 1246.56 52.3731C1246.21 52.3731 1245.9 52.4429 1245.64 52.5837C1245.38 52.7095 1245.15 52.8876 1244.97 53.1065C1244.6 53.5616 1244.41 53.9331 1244.41 54.2252C1244.4 54.3246 1244.5 54.3744 1244.72 54.3744H1246.7V54.3744Z" fill="#969696"/>
</svg>
