<svg width="16" height="17" viewBox="0 0 16 17" fill="none" xmlns="http://www.w3.org/2000/svg">
<g clip-path="url(#clip0_1_621)">
<path d="M15.9931 8.46308C15.9931 7.78236 15.9386 7.28561 15.8208 6.77047H8.16007V9.84292H12.6568C12.5661 10.6065 12.0766 11.7564 10.9886 12.529L10.9734 12.6319L13.3956 14.5359L13.5634 14.5529C15.1046 13.1086 15.9931 10.9836 15.9931 8.46308Z" fill="#4285F4"/>
<path d="M8.15934 16.5584C10.3623 16.5584 12.2118 15.8224 13.5627 14.553L10.9879 12.5291C10.2989 13.0167 9.37416 13.357 8.15934 13.357C6.00165 13.357 4.17034 11.9128 3.51752 9.91663L3.42184 9.92488L0.903206 11.9027L0.870269 11.9956C2.21202 14.7001 4.96809 16.5584 8.15934 16.5584Z" fill="#34A853"/>
<path d="M3.51757 9.91667C3.34532 9.40153 3.24563 8.84954 3.24563 8.27923C3.24563 7.70885 3.34532 7.15692 3.50851 6.64178L3.50394 6.53207L0.953752 4.52249L0.870314 4.56276C0.317313 5.68506 0 6.94536 0 8.27923C0 9.61309 0.317313 10.8733 0.870314 11.9956L3.51757 9.91667Z" fill="#FBBC05"/>
<path d="M8.15934 3.20126C9.69147 3.20126 10.725 3.87279 11.3143 4.43397L13.617 2.15258C12.2028 0.818721 10.3623 0 8.15934 0C4.96809 0 2.21202 1.8582 0.870269 4.56271L3.50846 6.64173C4.17034 4.64553 6.00165 3.20126 8.15934 3.20126Z" fill="#EB4335"/>
</g>
<defs>
<clipPath id="clip0_1_621">
<rect width="15.6" height="16.2" fill="white" transform="scale(1.02564)"/>
</clipPath>
</defs>
</svg>
