<svg width="180" height="34" viewBox="0 0 180 34" fill="none" xmlns="http://www.w3.org/2000/svg">
<path fill-rule="evenodd" clip-rule="evenodd" d="M0 21.8215V0.00097656H11.4319V3.36519H4.65087V8.94037H11.1423V12.3055H4.65087V21.8215H0V21.8215ZM19.7638 20.2836H19.6666C18.7949 21.6297 17.6317 22.2063 16.0818 22.2063C14.0469 22.2063 12.2064 20.9566 12.2064 18.843V6.63393H16.4695V17.2086C16.4695 18.5528 16.7601 19.5151 18.1157 19.5151C19.4713 19.5151 19.7628 18.5528 19.7628 17.2086V6.63393H24.026V18.8421C24.026 19.8044 24.1231 20.8612 24.2194 21.8215H19.7628V20.2836H19.7638V20.2836ZM29.7429 6.63393V8.55661C30.5183 6.82677 31.9702 6.2492 33.7145 6.2492V10.0936C29.9363 9.80529 29.9363 12.0163 29.9363 13.5542V21.8215H25.5769V6.63393H29.7429ZM38.8483 8.17187H38.9455C39.721 6.73034 40.8832 6.2492 42.5304 6.2492C44.5652 6.2492 46.4058 7.49884 46.4058 9.61341V21.8215H42.0464V11.3442C42.0464 9.99814 41.8521 8.94037 40.4964 8.94037C39.0427 8.94037 38.8493 9.99718 38.8493 11.3442V21.8215H34.5862V6.63393H38.8493V8.17187H38.8483V8.17187ZM48.0519 6.63393H52.3151V21.8215H48.0519V6.63393ZM48.0519 0.00097656H52.3151V3.36519H48.0519V0.00097656ZM52.8962 6.63393H54.5424V4.13464L58.9017 2.30838V6.63393H61.13V9.22868H58.9017V17.4005C58.9017 18.5528 58.9017 19.3232 60.2583 19.3232C60.5489 19.3232 60.8394 19.3232 61.0338 19.2258V21.8215C60.4527 21.9189 59.8715 22.0134 58.8055 22.0134C55.1245 22.0134 54.5424 19.5151 54.5424 18.6502V9.22868H52.8962V6.63393ZM69.3657 20.2836H69.2685C68.494 21.6297 67.3308 22.2063 65.6837 22.2063C63.6498 22.2063 61.8092 20.9566 61.8092 18.843V6.63393H66.1686V17.2086C66.1686 18.5528 66.362 19.5151 67.7186 19.5151C69.0751 19.5151 69.3657 18.5528 69.3657 17.2086V6.63393H73.6279V18.8421C73.6279 19.8044 73.7251 20.8612 73.8213 21.8215H69.3657V20.2836V20.2836ZM79.9249 6.63393V8.55661H80.0221C80.7976 6.82677 82.2504 6.2492 83.9947 6.2492V10.0936C80.2165 9.80529 80.1193 12.0163 80.1193 13.5542V21.8215H75.8571V6.63393H79.9249V6.63393Z" fill="#969696"/>
<path fill-rule="evenodd" clip-rule="evenodd" d="M88.1601 14.9012C88.1601 16.7284 88.1601 19.4187 90.0978 19.4187C91.6477 19.4187 91.9393 17.9771 91.9393 16.7284H96.2986C96.2005 18.3619 95.6203 19.7079 94.6505 20.6683C93.5855 21.6306 92.1327 22.2062 90.0978 22.2062C84.5762 22.2062 83.8007 18.843 83.8007 14.0363C83.8007 9.80623 84.3818 6.25014 90.0978 6.25014C95.9099 6.25014 96.492 9.99907 96.3948 14.9012H88.1601V14.9012ZM92.0345 12.4974C92.0345 11.0549 92.1327 8.94035 90.0968 8.94035C88.0629 8.94035 88.1591 11.2478 88.1591 12.4974H92.0345V12.4974ZM104.048 21.8215V0.000954131H112.187C115.673 0.000954131 118.58 1.05776 118.58 5.67161C118.58 8.1709 117.321 9.99715 114.801 10.4783V10.5747C118.095 10.9585 118.967 13.074 118.967 16.0535C118.967 21.6287 114.125 21.8215 112.187 21.8215H104.048ZM108.601 18.4583H111.217C112.187 18.4583 114.318 18.4583 114.318 15.3814C114.318 13.4587 113.64 12.3055 111.315 12.3055H108.602V18.4583H108.601ZM108.601 8.94035H111.702C112.67 8.94035 114.125 8.26732 114.125 6.15276C114.125 4.51839 112.962 3.36516 111.412 3.36516H108.602V8.94035H108.601ZM124.005 6.63391V8.55658H124.103C124.877 6.82675 126.331 6.24917 128.075 6.24917V10.0936C124.296 9.80527 124.199 12.0162 124.199 13.5542V21.8215H119.937V6.63391H124.005ZM140.475 19.0339C140.475 19.9962 140.669 20.9566 140.765 21.8215H136.696L136.503 19.8043C135.533 21.4378 134.274 22.2062 132.434 22.2062C129.429 22.2062 128.364 19.9972 128.364 17.3041C128.364 12.21 132.337 12.0172 136.309 12.1136V10.9595C136.309 9.61434 136.116 8.653 134.566 8.653C133.111 8.653 132.918 9.80623 132.918 10.9595H128.752C128.752 9.13319 129.334 7.97997 130.302 7.30693C131.272 6.53844 132.724 6.25014 134.371 6.25014C139.797 6.25014 140.475 8.65395 140.475 11.4415V19.0339V19.0339ZM132.628 17.1113C132.628 18.1681 132.724 19.5151 134.178 19.5151C136.696 19.5151 136.309 16.1499 136.309 14.5155C134.178 14.612 132.628 14.4201 132.628 17.1113ZM145.901 8.17185H145.997C146.868 6.73032 148.032 6.24917 149.583 6.24917C151.714 6.24917 153.457 7.49882 153.457 9.61338V21.8215H149.192V11.3442C149.192 9.99811 148.902 8.94035 147.546 8.94035C146.189 8.94035 145.9 9.99716 145.9 11.3442V21.8215H141.635V6.63391H145.9V8.17185H145.901V8.17185ZM162.756 21.8215V20.1881H162.658C161.883 21.6296 160.72 22.2053 159.074 22.2053C154.616 22.2053 154.714 17.3031 154.714 14.1308C154.714 11.054 154.616 6.24822 158.977 6.24822C160.527 6.24822 161.593 6.72841 162.464 8.07448V0H166.824V21.8206H162.756V21.8215ZM162.464 14.1318C162.464 11.0549 162.562 8.94035 160.818 8.94035C158.88 8.94035 158.977 11.0549 158.977 14.1318C158.977 17.8797 159.268 19.5151 160.818 19.5151C162.271 19.5151 162.464 17.8797 162.464 14.1318ZM172.444 16.9194C172.346 17.6879 172.444 18.3609 172.638 18.842C172.831 19.3232 173.316 19.5151 174.188 19.5151C175.059 19.5151 175.736 18.9385 175.736 17.9771C175.736 14.7084 168.179 15.4778 168.179 10.5757C168.179 7.30694 171.474 6.25014 174.283 6.25014C177.19 6.25014 179.806 7.69262 179.612 10.9604H175.446C175.446 9.9036 175.253 9.32699 174.961 9.03773C174.67 8.74942 174.38 8.65396 173.896 8.65396C172.926 8.65396 172.443 9.32699 172.443 10.2874C172.443 12.6902 180 12.5948 180 17.4969C180 20.1891 177.772 22.2072 174.188 22.2072C170.505 22.2072 167.987 21.2468 168.18 16.9213H172.444V16.9194V16.9194ZM0.775877 26.6282H2.13246V32.8764H0.775877V26.6282ZM11.3361 26.6282H13.2728L16.8576 31.4349V26.6282H18.2142V32.8764H16.2765L12.5955 27.9743V32.8764H11.3361V26.6282V26.6282ZM32.746 26.6282V27.686H30.3244V32.8764H28.9678V27.686H26.5452V26.6282H32.746ZM46.1146 27.686H42.4336V29.1265H45.9213V30.1843H42.4336V31.9141H46.2118V32.8764H41.077V26.6282H46.1146V27.686ZM55.1249 26.6282H58.9031C60.2597 26.6282 61.3257 27.1094 61.3257 28.3581C61.3257 29.4149 60.5502 29.896 59.5823 29.896V29.9915C61.0351 29.9915 61.1323 30.6645 61.2285 31.8187C61.2285 32.2998 61.3257 32.6836 61.4229 32.8755H59.8729C59.7757 32.6836 59.7757 32.2989 59.7757 31.9132C59.6786 30.6635 59.388 30.4717 58.0324 30.4717H56.4824V32.8755H55.1258V26.6282H55.1249V26.6282ZM56.4814 29.4158H58.322C59.1936 29.4158 59.8719 29.3184 59.8719 28.5509C59.8719 27.7833 59.1936 27.686 58.4191 27.686H56.4814V29.4158V29.4158ZM70.2378 26.6282H72.2727L75.8565 31.4349V26.6282H77.1159V32.8764H75.1782L71.4972 27.9743V32.8764H70.2378V26.6282ZM88.644 26.6282H90.3874L93.6817 32.8764H91.9383L91.26 31.5304H87.578L86.8997 32.8764H85.4469L88.644 26.6282V26.6282ZM90.7761 30.4736L89.4195 27.7834L88.1601 30.4736H90.7761ZM107.536 26.6282V27.686H105.114V32.8764H103.757V27.686H101.336V26.6282H107.536ZM116.061 26.6282H117.416V32.8764H116.061V26.6282ZM130.012 26.4363C132.337 26.4363 133.693 27.5886 133.693 29.7996C133.693 32.0106 132.337 33.0683 130.012 33.0683C127.686 33.0683 126.331 32.0115 126.331 29.7996C126.331 27.5876 127.686 26.4363 130.012 26.4363ZM130.012 32.0115C131.367 32.0115 132.238 31.243 132.238 29.8005C132.238 28.2626 131.367 27.4941 130.012 27.4941C128.656 27.4941 127.784 28.2626 127.784 29.8005C127.783 31.243 128.656 32.0115 130.012 32.0115ZM142.413 26.6282H144.446L148.031 31.4349V26.6282H149.29V32.8764H147.449L143.768 27.9743H143.671V32.8764H142.413V26.6282V26.6282ZM160.818 26.6282H162.658L165.856 32.8764H164.208L163.433 31.5304H159.847L159.171 32.8764H157.621L160.818 26.6282V26.6282ZM162.949 30.4736L161.593 27.7834L160.333 30.4736H162.949ZM174.189 26.6282H175.543V31.9141H179.031V32.8764H174.189V26.6282Z" fill="#969696"/>
</svg>
