<svg width="16" height="16" viewBox="0 0 16 16" fill="none" xmlns="http://www.w3.org/2000/svg">
<path d="M8.00178 3.87685C5.73162 3.87685 3.9005 5.69854 3.9005 7.957C3.9005 10.2155 5.73162 12.0371 8.00178 12.0371C10.2719 12.0371 12.1031 10.2155 12.1031 7.957C12.1031 5.69854 10.2719 3.87685 8.00178 3.87685ZM8.00178 10.6096C6.53474 10.6096 5.33541 9.42003 5.33541 7.957C5.33541 6.49397 6.53117 5.30437 8.00178 5.30437C9.47239 5.30437 10.6681 6.49397 10.6681 7.957C10.6681 9.42003 9.46882 10.6096 8.00178 10.6096V10.6096ZM13.2274 3.70995C13.2274 4.23906 12.7991 4.66163 12.2708 4.66163C11.739 4.66163 11.3142 4.23551 11.3142 3.70995C11.3142 3.1844 11.7426 2.75827 12.2708 2.75827C12.7991 2.75827 13.2274 3.1844 13.2274 3.70995ZM15.9438 4.67584C15.8831 3.40101 15.5904 2.27178 14.6516 1.34141C13.7164 0.411033 12.5814 0.119848 11.2999 0.0559289C9.97925 -0.018643 6.02075 -0.018643 4.70005 0.0559289C3.4222 0.116297 2.28712 0.407482 1.34835 1.33786C0.409593 2.26823 0.120468 3.39746 0.0562186 4.67228C-0.0187395 5.98617 -0.0187395 9.92428 0.0562186 11.2382C0.116899 12.513 0.409593 13.6422 1.34835 14.5726C2.28712 15.503 3.41863 15.7942 4.70005 15.8581C6.02075 15.9326 9.97925 15.9326 11.2999 15.8581C12.5814 15.7977 13.7164 15.5065 14.6516 14.5726C15.5868 13.6422 15.8795 12.513 15.9438 11.2382C16.0187 9.92428 16.0187 5.98972 15.9438 4.67584V4.67584ZM14.2376 12.6479C13.9592 13.3439 13.4202 13.8801 12.717 14.1607C11.664 14.5761 9.16542 14.4803 8.00178 14.4803C6.83815 14.4803 4.33597 14.5726 3.28656 14.1607C2.58695 13.8837 2.04796 13.3475 1.76598 12.6479C1.34835 11.6004 1.44473 9.11464 1.44473 7.957C1.44473 6.79936 1.35192 4.31008 1.76598 3.26607C2.04439 2.57007 2.58338 2.03386 3.28656 1.75333C4.33954 1.33786 6.83815 1.43373 8.00178 1.43373C9.16542 1.43373 11.6676 1.34141 12.717 1.75333C13.4166 2.03031 13.9556 2.56652 14.2376 3.26607C14.6552 4.31363 14.5588 6.79936 14.5588 7.957C14.5588 9.11464 14.6552 11.6039 14.2376 12.6479Z" fill="white"/>
</svg>
