<svg width="18" height="14" viewBox="0 0 18 14" fill="none" xmlns="http://www.w3.org/2000/svg">
<path d="M17.8923 1.65729C17.2223 1.94307 16.5116 2.13066 15.7839 2.21381C16.5419 1.7764 17.1239 1.08375 17.3979 0.258473C16.6774 0.670162 15.889 0.960223 15.067 1.11612C14.3973 0.429263 13.4434 0 12.3875 0C10.3603 0 8.71661 1.58246 8.71661 3.53423C8.71661 3.81128 8.74911 4.08099 8.81167 4.33973C5.76089 4.19229 3.05608 2.78526 1.24554 0.646956C0.929629 1.16895 0.74861 1.77613 0.74861 2.42376C0.74861 3.64998 1.39672 4.73171 2.38163 5.36555C1.7987 5.34797 1.22859 5.19638 0.718906 4.92343C0.718696 4.93823 0.718696 4.95304 0.718696 4.96791C0.718696 6.68032 1.98402 8.10882 3.66323 8.4335C3.12268 8.57505 2.55568 8.59576 2.00554 8.49407C2.47263 9.8982 3.82832 10.92 5.43457 10.9486C4.17827 11.8965 2.59543 12.4615 0.875673 12.4615C0.579332 12.4615 0.287185 12.4448 0 12.4121C1.62449 13.4149 3.55399 14.0001 5.62698 14.0001C12.379 14.0001 16.0712 8.61452 16.0712 3.94411C16.0712 3.79082 16.0677 3.6384 16.0606 3.48686C16.7792 2.98666 17.3995 2.36711 17.8923 1.65729" fill="white"/>
</svg>
