<svg width="16" height="17" viewBox="0 0 16 17" fill="none" xmlns="http://www.w3.org/2000/svg">
<g clip-path="url(#clip0_1_698)">
<path d="M15.993 8.46307C15.993 7.78234 15.9386 7.2856 15.8208 6.77046H8.16005V9.84291H12.6567C12.5661 10.6065 12.0766 11.7563 10.9886 12.529L10.9734 12.6319L13.3955 14.5359L13.5634 14.5529C15.1045 13.1086 15.993 10.9836 15.993 8.46307Z" fill="#4285F4"/>
<path d="M8.15937 16.5583C10.3624 16.5583 12.2118 15.8224 13.5627 14.5529L10.9879 12.5291C10.2989 13.0166 9.37419 13.357 8.15937 13.357C6.00169 13.357 4.17038 11.9128 3.51756 9.91661L3.42188 9.92486L0.903251 11.9027L0.870314 11.9956C2.21206 14.7001 4.96812 16.5583 8.15937 16.5583Z" fill="#34A853"/>
<path d="M3.51756 9.91665C3.34531 9.40151 3.24562 8.84952 3.24562 8.27921C3.24562 7.70883 3.34531 7.15691 3.5085 6.64177L3.50394 6.53206L0.95375 4.52248L0.870312 4.56275C0.317312 5.68505 0 6.94535 0 8.27921C0 9.61307 0.317312 10.8733 0.870312 11.9956L3.51756 9.91665Z" fill="#FBBC05"/>
<path d="M8.15937 3.20125C9.6915 3.20125 10.725 3.87278 11.3143 4.43396L13.6171 2.15258C12.2028 0.81872 10.3624 0 8.15937 0C4.96812 0 2.21206 1.8582 0.870314 4.5627L3.5085 6.64171C4.17038 4.64552 6.00169 3.20125 8.15937 3.20125Z" fill="#EB4335"/>
</g>
<defs>
<clipPath id="clip0_1_698">
<rect width="15.6" height="16.2" fill="white" transform="scale(1.02564)"/>
</clipPath>
</defs>
</svg>
